<svg xmlns="http://www.w3.org/2000/svg" width="48" height="48" viewBox="0 0 48 48">
    <g fill="none" stroke="#fff" stroke-width="2px">
        <rect width="48" height="48" stroke="none" rx="15"/>
        <rect width="46" height="46" x="1" y="1" rx="14"/>
    </g>
    <path fill="#fff" d="M6.058-6a4.538 4.538 0 0 1-3.642-1.539A6.748 6.748 0 0 1 1.1-12.04a6.7 6.7 0 0 1 1.316-4.473 4.538 4.538 0 0 1 3.642-1.537 4.612 4.612 0 0 1 3.684 1.537 6.653 6.653 0 0 1 1.329 4.473 6.7 6.7 0 0 1-1.329 4.5A4.612 4.612 0 0 1 6.058-6zm2.853 7.948H5.864l11.411-19.721h3.075zM6.058-8.245a1.681 1.681 0 0 0 1.579-.886 6.266 6.266 0 0 0 .5-2.908 6.052 6.052 0 0 0-.512-2.867 1.684 1.684 0 0 0-1.565-.9 1.632 1.632 0 0 0-1.523.9 6.2 6.2 0 0 0-.5 2.867 6.278 6.278 0 0 0 .5 2.894 1.632 1.632 0 0 0 1.521.9zm14.07 10.386A4.571 4.571 0 0 1 16.458.6a6.8 6.8 0 0 1-1.316-4.529 6.644 6.644 0 0 1 1.316-4.459 4.59 4.59 0 0 1 3.67-1.523A4.59 4.59 0 0 1 23.8-8.384 6.692 6.692 0 0 1 25.114-3.9 6.748 6.748 0 0 1 23.8.6a4.571 4.571 0 0 1-3.672 1.541zm0-2.243A1.654 1.654 0 0 0 21.679-1a6.278 6.278 0 0 0 .5-2.894 6.052 6.052 0 0 0-.512-2.867 1.661 1.661 0 0 0-1.537-.9 1.654 1.654 0 0 0-1.551.9 6.2 6.2 0 0 0-.5 2.867A6.278 6.278 0 0 0 18.577-1a1.654 1.654 0 0 0 1.551.9z" transform="translate(10.893 32.036)"/>
</svg>
