<svg xmlns="http://www.w3.org/2000/svg" width="48" height="48" viewBox="0 0 48 48">
    <g fill="none" stroke="#fff" stroke-width="2px">
        <rect width="48" height="48" stroke="none" rx="15"/>
        <rect width="46" height="46" x="1" y="1" rx="14"/>
    </g>
    <path fill="#fff" d="M27.535 21.761a17.851 17.851 0 0 1-.57 4.849 9 9 0 0 1-1.578 3.233 5.922 5.922 0 0 1-2.472 1.806 8.738 8.738 0 0 1-3.233.57 8.708 8.708 0 0 1-3.214-.57 5.979 5.979 0 0 1-2.491-1.806 9.042 9.042 0 0 1-1.617-3.233 17.851 17.851 0 0 1-.57-4.849v-3.879a17.851 17.851 0 0 1 .57-4.849 8.625 8.625 0 0 1 1.6-3.214 5.891 5.891 0 0 1 2.491-1.768 9.04 9.04 0 0 1 3.211-.551 9.147 9.147 0 0 1 3.233.551 5.891 5.891 0 0 1 2.491 1.769 8.625 8.625 0 0 1 1.6 3.214 17.755 17.755 0 0 1 .57 4.849v3.879zm-4.012-4.488a17.382 17.382 0 0 0-.247-3.08 5.653 5.653 0 0 0-.761-2.016 2.923 2.923 0 0 0-1.217-1.1 3.508 3.508 0 0 0-1.635-.361 3.755 3.755 0 0 0-1.635.342 2.923 2.923 0 0 0-1.217 1.1 6.036 6.036 0 0 0-.761 2.016 15.751 15.751 0 0 0-.247 3.08v5.077a15.6 15.6 0 0 0 .266 3.08 6.394 6.394 0 0 0 .761 2.073 3.079 3.079 0 0 0 1.217 1.16 3.968 3.968 0 0 0 3.309 0 3.036 3.036 0 0 0 1.2-1.16 6.407 6.407 0 0 0 .742-2.073 16.017 16.017 0 0 0 .247-3.08v-5.057z" transform="translate(4.447 4.199)"/>
</svg>
