<svg width="15" height="22" viewBox="0 0 15 22" fill="none" xmlns="http://www.w3.org/2000/svg">
<path d="M12.5 17.5L12.1631 18.6791C11.9254 19.511 11.8066 19.927 11.5639 20.2358C11.3498 20.5083 11.0685 20.7205 10.7476 20.8515C10.3841 21 9.95146 21 9.08624 21H5.91376C5.04854 21 4.61592 21 4.25239 20.8515C3.93152 20.7205 3.65022 20.5083 3.43606 20.2358C3.19343 19.927 3.07458 19.511 2.83689 18.6791L2.5 17.5M12.5 4.5L12.1631 3.32089C11.9254 2.48896 11.8066 2.07298 11.5639 1.76423C11.3498 1.49171 11.0685 1.27953 10.7476 1.14847C10.3841 1 9.95146 1 9.08624 1H5.91376C5.04854 1 4.61592 1 4.25239 1.14847C3.93152 1.27953 3.65022 1.49171 3.43606 1.76423C3.19343 2.07299 3.07458 2.48895 2.83689 3.32089L2.5 4.5M7.5 8V11L9 12.5M4.2 17.5H10.8C11.9201 17.5 12.4802 17.5 12.908 17.282C13.2843 17.0903 13.5903 16.7843 13.782 16.408C14 15.9802 14 15.4201 14 14.3V7.7C14 6.57989 14 6.01984 13.782 5.59202C13.5903 5.21569 13.2843 4.90973 12.908 4.71799C12.4802 4.5 11.9201 4.5 10.8 4.5H4.2C3.0799 4.5 2.51984 4.5 2.09202 4.71799C1.71569 4.90973 1.40973 5.21569 1.21799 5.59202C1 6.01984 1 6.57989 1 7.7V14.3C1 15.4201 1 15.9802 1.21799 16.408C1.40973 16.7843 1.71569 17.0903 2.09202 17.282C2.51984 17.5 3.07989 17.5 4.2 17.5Z" stroke="url(#paint0_linear_12_1109)" stroke-width="1.5" stroke-linecap="round" stroke-linejoin="round"/>
<defs>
<linearGradient id="paint0_linear_12_1109" x1="0.996981" y1="11.0007" x2="14.0009" y2="11.0007" gradientUnits="userSpaceOnUse">
<stop stop-color="#056ac8"/>
<stop offset="1" stop-color="#1b7dd9"/>
</linearGradient>
</defs>
</svg>
