<svg width="10" height="16" viewBox="0 0 10 16" fill="none" xmlns="http://www.w3.org/2000/svg">
<path d="M9.88541 8.03141C9.88666 8.24098 9.84513 8.44873 9.7632 8.64275C9.68126 8.83677 9.56053 9.01323 9.40794 9.16203L2.82207 15.5317C2.66856 15.6802 2.48631 15.7979 2.28573 15.8783C2.08516 15.9586 1.87018 16 1.65308 16C1.43598 16 1.221 15.9586 1.02043 15.8783C0.81985 15.7979 0.637603 15.6802 0.484089 15.5317C0.330575 15.3832 0.208801 15.2069 0.125719 15.013C0.0426382 14.819 -0.000122057 14.611 -0.000122051 14.4011C-0.000122046 14.1911 0.0426382 13.9832 0.125719 13.7892C0.208801 13.5952 0.330575 13.4189 0.484089 13.2705L5.93389 8.03141L0.69813 2.77644C0.529713 2.62996 0.39436 2.45143 0.300534 2.25204C0.206708 2.05265 0.15643 1.83668 0.152842 1.61764C0.149253 1.3986 0.192432 1.1812 0.27968 0.979031C0.366928 0.776865 0.496368 0.594288 0.659902 0.442712C0.823437 0.291137 1.01755 0.173825 1.2301 0.0981169C1.44265 0.0224085 1.66906 -0.0100689 1.89518 0.00271513C2.1213 0.0154991 2.34226 0.0732708 2.54424 0.172415C2.74622 0.271559 2.92488 0.409943 3.06904 0.578914L9.4244 6.94857C9.7147 7.23978 9.87952 7.62693 9.88541 8.03141Z" fill="#CFD3E9"/>
</svg>
