<svg width="66" height="46" viewBox="0 0 66 46" fill="none" xmlns="http://www.w3.org/2000/svg">
<g filter="url(#filter0_d_15_868)">
<path d="M59.1445 42H6.85549C4.72342 42 3 40.1256 3 37.7874V6.19324C3 3.8744 4.72342 2 6.85549 2H59.1445C61.2766 2 63 3.8744 63 6.19324V37.7874C63 40.1256 61.2766 42 59.1445 42Z" fill="url(#paint0_linear_15_868)"/>
</g>
<path d="M22 6H6V27H22V6Z" fill="white" fill-opacity="0.5"/>
<path d="M60 35H7V39H60V35Z" fill="white" fill-opacity="0.5"/>
<path d="M63 31H3V32H63V31Z" fill="white" fill-opacity="0.5"/>
<path d="M60 6H44V10H60V6Z" fill="white" fill-opacity="0.5"/>
<path d="M60 23H44V27H60V23Z" fill="white" fill-opacity="0.5"/>
<path d="M60 12H26V16H60V12Z" fill="white" fill-opacity="0.5"/>
<path d="M42 6H26V10H42V6Z" fill="white" fill-opacity="0.5"/>
<defs>
<filter id="filter0_d_15_868" x="0" y="0" width="66" height="46" filterUnits="userSpaceOnUse" color-interpolation-filters="sRGB">
<feFlood flood-opacity="0" result="BackgroundImageFix"/>
<feColorMatrix in="SourceAlpha" type="matrix" values="0 0 0 0 0 0 0 0 0 0 0 0 0 0 0 0 0 0 127 0" result="hardAlpha"/>
<feOffset dy="1"/>
<feGaussianBlur stdDeviation="1.5"/>
<feComposite in2="hardAlpha" operator="out"/>
<feColorMatrix type="matrix" values="0 0 0 0 0 0 0 0 0 0 0 0 0 0 0 0 0 0 0.08 0"/>
<feBlend mode="normal" in2="BackgroundImageFix" result="effect1_dropShadow_15_868"/>
<feBlend mode="normal" in="SourceGraphic" in2="effect1_dropShadow_15_868" result="shape"/>
</filter>
<linearGradient id="paint0_linear_15_868" x1="3" y1="21.9923" x2="63.0102" y2="21.9923" gradientUnits="userSpaceOnUse">
<stop stop-color="#6B2AC8"/>
<stop offset="1" stop-color="#2B63AD"/>
</linearGradient>
</defs>
</svg>
