<svg width="50" height="68" viewBox="0 0 50 68" fill="none" xmlns="http://www.w3.org/2000/svg">
<g filter="url(#filter0_d_14_827)">
<path d="M47 5.66839V60.3316C47 62.3541 45.346 64 43.3135 64H3V2H43.3135C44.2386 2 45.0937 2.34871 45.7385 2.90664C46.5094 3.57615 47 4.56648 47 5.66839Z" fill="url(#paint0_linear_14_827)"/>
</g>
<g opacity="0.5">
<path d="M25 17C17.2738 17 11 23.0497 11 30.5C11 37.9503 17.2738 44 25 44C32.7262 44 39 37.9503 39 30.5C38.985 23.0497 32.7112 17 25 17ZM38.1914 30.1102H31.8278C31.7679 27.5112 31.0342 24.9267 29.5818 22.3422C30.7348 21.7214 31.5583 20.7973 31.7829 19.5701C35.5262 21.7358 38.0567 25.6342 38.1914 30.1102ZM25.3893 37.6037V30.8754H31.0342C30.9594 33.3444 30.2107 35.8278 28.8182 38.2824C27.7701 37.8636 26.5722 37.6471 25.3893 37.6037ZM20.6877 38.4989C19.2053 35.9722 18.4267 33.4166 18.3369 30.8754H24.5957V37.6037C23.2182 37.6471 21.8257 37.9503 20.6877 38.4989ZM20.6128 22.4433C21.7209 22.992 23.0984 23.3241 24.5957 23.3674V30.1102H18.3369C18.3968 27.5545 19.1455 24.9989 20.6128 22.4433ZM25.3893 30.1102V23.3818C26.6021 23.3385 27.8299 23.1075 28.8781 22.6888C30.2556 25.1578 30.9743 27.6412 31.0342 30.1246H25.3893V30.1102ZM31.0342 19.1802C30.9444 20.292 30.2257 21.1294 29.1925 21.6925C29.1775 21.6781 29.1775 21.6492 29.1626 21.6348L28.4888 22.0246C27.4406 22.4289 26.1979 22.631 24.985 22.631C22.1551 22.631 19.1305 21.5481 18.9358 19.1802C20.7476 18.2706 22.7989 17.7652 24.985 17.7652C27.1711 17.7508 29.2225 18.2706 31.0342 19.1802ZM18.2021 19.5701C18.3818 20.5519 18.9658 21.4037 19.939 22.0535C18.3968 24.7246 17.5882 27.4102 17.5433 30.1102H11.7936C11.9283 25.6342 14.4588 21.7358 18.2021 19.5701ZM11.7936 30.8754H17.5433C17.6332 33.5465 18.4417 36.2176 19.9989 38.8743C19.0556 39.4807 18.3818 40.3326 18.2021 41.4155C14.4588 39.2497 11.9283 35.3513 11.7936 30.8754ZM18.9508 41.8053C19.1305 39.4374 22.1701 38.3545 25 38.3545C26.6171 38.3545 28.1294 38.7011 29.2374 39.3219C30.016 39.7551 30.9444 40.5492 31.0492 41.8053C29.2374 42.715 27.1861 43.2203 25 43.2203C22.8139 43.2348 20.7626 42.715 18.9508 41.8053ZM31.7829 41.4155C31.5583 40.1594 30.7048 39.2353 29.5219 38.6144C30.9743 36.0444 31.738 33.4599 31.8278 30.8754H38.2064C38.0567 35.3513 35.5262 39.2497 31.7829 41.4155Z" fill="white"/>
<path d="M36 6H14V9H36V6Z" fill="white"/>
<path d="M39 11H11V14H39V11Z" fill="white"/>
<path d="M39 47H11V52H39V47Z" fill="white"/>
<path d="M25 58.9662C24.1607 58.9662 23.4286 58.3938 23.1964 57.6H21V59.0585C21 59.5754 21.4107 60 21.9107 60H28.0714C28.5714 60 28.9821 59.5754 28.9821 59.0585V57.6H26.8036C26.5536 58.3938 25.8393 58.9662 25 58.9662ZM28.0714 54H21.9107C21.4107 54 21 54.4246 21 54.9415V56.4H23.1964C23.4464 55.6062 24.1607 55.0338 25 55.0338C25.8393 55.0338 26.5714 55.6062 26.8036 56.4H29V54.9415C29 54.4246 28.5893 54 28.0714 54Z" fill="white"/>
</g>
<defs>
<filter id="filter0_d_14_827" x="0" y="0" width="50" height="68" filterUnits="userSpaceOnUse" color-interpolation-filters="sRGB">
<feFlood flood-opacity="0" result="BackgroundImageFix"/>
<feColorMatrix in="SourceAlpha" type="matrix" values="0 0 0 0 0 0 0 0 0 0 0 0 0 0 0 0 0 0 127 0" result="hardAlpha"/>
<feOffset dy="1"/>
<feGaussianBlur stdDeviation="1.5"/>
<feComposite in2="hardAlpha" operator="out"/>
<feColorMatrix type="matrix" values="0 0 0 0 0 0 0 0 0 0 0 0 0 0 0 0 0 0 0.08 0"/>
<feBlend mode="normal" in2="BackgroundImageFix" result="effect1_dropShadow_14_827"/>
<feBlend mode="normal" in="SourceGraphic" in2="effect1_dropShadow_14_827" result="shape"/>
</filter>
<linearGradient id="paint0_linear_14_827" x1="3" y1="32.9881" x2="47.0074" y2="32.9881" gradientUnits="userSpaceOnUse">
<stop stop-color="#6B2AC8"/>
<stop offset="1" stop-color="#2B63AD"/>
</linearGradient>
</defs>
</svg>
