<svg width="18" height="18" viewBox="0 0 18 18" fill="none" xmlns="http://www.w3.org/2000/svg">
<path fill-rule="evenodd" clip-rule="evenodd" d="M13.5 0.25C13.9142 0.25 14.25 0.585786 14.25 1V3H15C16.1046 3 17 3.89543 17 5V11C17 12.1046 16.1046 13 15 13H14.25V15C14.25 15.4142 13.9142 15.75 13.5 15.75C13.0858 15.75 12.75 15.4142 12.75 15V13H12C10.8954 13 10 12.1046 10 11V5C10 3.89543 10.8954 3 12 3H12.75V1C12.75 0.585786 13.0858 0.25 13.5 0.25ZM4.5 5.25C4.91421 5.25 5.25 5.58579 5.25 6V8H6C7.10457 8 8 8.89543 8 10V13C8 14.1046 7.10457 15 6 15H5.25V17C5.25 17.4142 4.91421 17.75 4.5 17.75C4.08579 17.75 3.75 17.4142 3.75 17V15H3C1.89543 15 1 14.1046 1 13V10C1 8.89543 1.89543 8 3 8H3.75V6C3.75 5.58579 4.08579 5.25 4.5 5.25ZM3 9.5C2.72386 9.5 2.5 9.72386 2.5 10V13C2.5 13.2761 2.72386 13.5 3 13.5H6C6.27614 13.5 6.5 13.2761 6.5 13V10C6.5 9.72386 6.27614 9.5 6 9.5H3ZM11.5 5C11.5 4.72386 11.7239 4.5 12 4.5H15C15.2761 4.5 15.5 4.72386 15.5 5V11C15.5 11.2761 15.2761 11.5 15 11.5H12C11.7239 11.5 11.5 11.2761 11.5 11V5Z" fill="white"/>
</svg>
