<svg width="18" height="18" viewBox="0 0 18 18" fill="none" xmlns="http://www.w3.org/2000/svg">
<path d="M16 7.4H2M12.1111 1V4.2M5.88889 1V4.2M5.73333 17H12.2667C13.5735 17 14.2269 17 14.726 16.7384C15.165 16.5083 15.522 16.1412 15.7457 15.6896C16 15.1762 16 14.5041 16 13.16V6.44C16 5.09587 16 4.42381 15.7457 3.91042C15.522 3.45883 15.165 3.09168 14.726 2.86158C14.2269 2.6 13.5735 2.6 12.2667 2.6H5.73333C4.42654 2.6 3.77315 2.6 3.27402 2.86158C2.83498 3.09168 2.47802 3.45883 2.25432 3.91042C2 4.42381 2 5.09587 2 6.44V13.16C2 14.5041 2 15.1762 2.25432 15.6896C2.47802 16.1412 2.83498 16.5083 3.27402 16.7384C3.77315 17 4.42654 17 5.73333 17Z" stroke="white" stroke-width="1.5" stroke-linecap="round" stroke-linejoin="round"/>
</svg>
