<svg width="18" height="18" viewBox="0 0 18 18" fill="none" xmlns="http://www.w3.org/2000/svg">
<path d="M16 7.92857H2M2 6.51429L2 12.4857C2 13.3658 2 13.8058 2.15259 14.142C2.28681 14.4377 2.50099 14.6781 2.76441 14.8287C3.06389 15 3.45593 15 4.24 15L13.76 15C14.5441 15 14.9361 15 15.2356 14.8287C15.499 14.6781 15.7132 14.4377 15.8474 14.142C16 13.8058 16 13.3658 16 12.4857V6.51429C16 5.6342 16 5.19416 15.8474 4.85802C15.7132 4.56233 15.499 4.32193 15.2356 4.17128C14.9361 4 14.5441 4 13.76 4L4.24 4C3.45593 4 3.06389 4 2.76441 4.17128C2.50099 4.32193 2.28681 4.56233 2.15259 4.85801C2 5.19416 2 5.6342 2 6.51429Z" stroke="white" stroke-width="1.5" stroke-linecap="round" stroke-linejoin="round"/>
</svg>
