<svg width="18" height="18" viewBox="0 0 18 18" fill="none" xmlns="http://www.w3.org/2000/svg">
<path d="M8.3 2L10.4 4.1M10.4 4.1L8.3 6.2M10.4 4.1H5.36C4.18389 4.1 3.59583 4.1 3.14662 4.32889C2.75148 4.53022 2.43022 4.85148 2.22889 5.24662C2 5.69583 2 6.28389 2 7.46V11.45C2 11.7751 2 11.9376 2.01797 12.0741C2.14203 13.0164 2.88355 13.758 3.8259 13.882C3.96236 13.9 4.12491 13.9 4.45 13.9M7.6 13.9H12.64C13.8161 13.9 14.4042 13.9 14.8534 13.6711C15.2485 13.4698 15.5698 13.1485 15.7711 12.7534C16 12.3042 16 11.7161 16 10.54V6.55C16 6.22491 16 6.06236 15.982 5.92589C15.858 4.98355 15.1164 4.24203 14.1741 4.11797C14.0376 4.1 13.8751 4.1 13.55 4.1M7.6 13.9L9.7 16M7.6 13.9L9.7 11.8" stroke="white" stroke-width="1.5" stroke-linecap="round" stroke-linejoin="round"/>
</svg>
