<svg width="18" height="18" viewBox="0 0 18 18" fill="none" xmlns="http://www.w3.org/2000/svg">
<path d="M16 15.6172V10.2063C16 9.82982 15.9223 9.45733 15.7715 9.1116C15.6206 8.76588 15.3999 8.4542 15.1229 8.19567L9.9618 3.37798C9.70186 3.13525 9.35772 3 9 3C8.64228 3 8.29814 3.13525 8.0382 3.37798L2.8771 8.19567C2.60006 8.4542 2.37937 8.76588 2.22855 9.1116C2.07773 9.45733 1.99996 9.82982 2 10.2063V15.6172C2 15.9839 2.1475 16.3357 2.41005 16.595C2.6726 16.8543 3.0287 17 3.4 17H14.6C14.9713 17 15.3274 16.8543 15.5899 16.595C15.8525 16.3357 16 15.9839 16 15.6172Z" stroke="white" stroke-width="1.5" stroke-linecap="round" stroke-linejoin="round"/>
</svg>
