<svg width="18" height="18" viewBox="0 0 18 18" fill="none" xmlns="http://www.w3.org/2000/svg">
<path d="M12.2 4.33333C12.2 3.55836 12.2 3.17087 12.1182 2.85295C11.8963 1.99022 11.2494 1.31635 10.4212 1.08519C10.116 1 9.74398 1 9 1C8.25602 1 7.88403 1 7.57883 1.08519C6.75061 1.31635 6.1037 1.99022 5.88178 2.85295C5.8 3.17087 5.8 3.55836 5.8 4.33333M3.56 16H14.44C15.3361 16 15.7841 16 16.1264 15.8183C16.4274 15.6586 16.6722 15.4036 16.8256 15.09C17 14.7335 17 14.2668 17 13.3333V7C17 6.06658 17 5.59987 16.8256 5.24335C16.6722 4.92975 16.4274 4.67478 16.1264 4.51499C15.7841 4.33333 15.3361 4.33333 14.44 4.33333H3.56C2.66392 4.33333 2.21587 4.33333 1.87362 4.51499C1.57256 4.67478 1.32779 4.92975 1.17439 5.24335C1 5.59987 1 6.06658 1 7V13.3333C1 14.2668 1 14.7335 1.17439 15.09C1.32779 15.4036 1.57256 15.6586 1.87362 15.8183C2.21587 16 2.66392 16 3.56 16Z" stroke="white" stroke-width="1.5" stroke-linecap="round" stroke-linejoin="round"/>
</svg>
