<svg width="18" height="18" viewBox="0 0 18 18" fill="none" xmlns="http://www.w3.org/2000/svg">
<g clip-path="url(#clip0_5_2766)">
<path d="M15 14L14.3182 15.5V15.5C13.903 16.4135 12.9921 17 11.9887 17H10" stroke="white" stroke-width="1.5" stroke-linecap="round"/>
<path d="M3 10V7C3 3.68629 5.68629 1 9 1V1C12.3137 1 15 3.68629 15 7V10" stroke="white" stroke-width="1.5"/>
<path d="M0.75 11.8571C0.75 10.6934 1.6934 9.75 2.85714 9.75C3.07411 9.75 3.25 9.92589 3.25 10.1429V13.8571C3.25 14.0741 3.07411 14.25 2.85714 14.25C1.6934 14.25 0.75 13.3066 0.75 12.1429V11.8571Z" stroke="white" stroke-width="1.5" stroke-linejoin="round"/>
<path d="M17.25 12.1429C17.25 13.3066 16.3066 14.25 15.1429 14.25C14.9259 14.25 14.75 14.0741 14.75 13.8571L14.75 10.1429C14.75 9.92589 14.9259 9.75 15.1429 9.75C16.3066 9.75 17.25 10.6934 17.25 11.8571L17.25 12.1429Z" stroke="white" stroke-width="1.5" stroke-linejoin="round"/>
</g>
<defs>
<clipPath id="clip0_5_2766">
<rect width="18" height="18" fill="white"/>
</clipPath>
</defs>
</svg>
