<svg width="10" height="16" viewBox="0 0 10 16" fill="none" xmlns="http://www.w3.org/2000/svg">
<path d="M-3.59587e-05 7.96859C-0.00128873 7.75901 0.0402443 7.55126 0.12218 7.35725C0.204116 7.16323 0.324842 6.98677 0.477439 6.83797L7.0633 0.468316C7.21682 0.319841 7.39907 0.202065 7.59964 0.121712C7.80022 0.0413579 8.01519 -7.86247e-08 8.2323 -7.22638e-08C8.4494 -6.59028e-08 8.66437 0.041358 8.86495 0.121712C9.06553 0.202065 9.24777 0.319841 9.40129 0.468316C9.5548 0.61679 9.67658 0.793055 9.75966 0.987046C9.84274 1.18104 9.8855 1.38896 9.8855 1.59893C9.8855 1.8089 9.84274 2.01682 9.75966 2.21081C9.67658 2.40481 9.5548 2.58107 9.40129 2.72954L3.95148 7.96859L9.18725 13.2236C9.35566 13.37 9.49102 13.5486 9.58484 13.748C9.67867 13.9473 9.72895 14.1633 9.73253 14.3824C9.73612 14.6014 9.69294 14.8188 9.6057 15.021C9.51845 15.2231 9.38901 15.4057 9.22547 15.5573C9.06194 15.7089 8.86783 15.8262 8.65528 15.9019C8.44273 15.9776 8.21631 16.0101 7.99019 15.9973C7.76408 15.9845 7.54312 15.9267 7.34113 15.8276C7.13915 15.7284 6.9605 15.5901 6.81633 15.4211L0.460974 9.05143C0.170677 8.76022 0.00585165 8.37307 -3.59587e-05 7.96859Z" fill="url(#paint0_linear_13_221)"/>
<defs>
<linearGradient id="paint0_linear_13_221" x1="4.94462" y1="-2.15973e-07" x2="4.94462" y2="16.0027" gradientUnits="userSpaceOnUse">
<stop stop-color="#2B63AD"/>
<stop offset="1" stop-color="#2B63AD"/>
</linearGradient>
</defs>
</svg>
