<svg width="171" height="56" viewBox="0 0 171 56" fill="none" xmlns="http://www.w3.org/2000/svg">
<path d="M40.6086 16.1573H49.3503C53.6788 16.1573 56.656 18.6108 56.656 22.579C56.656 25.2671 55.0513 27.2512 53.4677 27.8913C55.3258 28.4246 57.4584 30.238 57.4584 33.5022C57.4584 37.4917 54.2067 40.0092 49.6248 40.0092H40.6298V16.1573H40.6086ZM44.9795 20.0615V26.0992H48.9913C51.0606 26.0992 52.1797 24.6484 52.1797 22.9417C52.1797 21.3629 50.9761 20.0615 48.8857 20.0615H44.9795ZM44.9795 36.105H49.5614C51.5251 36.105 52.8765 34.6543 52.8765 32.8408C52.8765 31.0914 51.2717 29.6834 49.1813 29.6834H44.9583V36.105H44.9795Z" fill="black"/>
<path d="M76.3226 30.2248C76.3226 30.957 76.1971 31.7101 76.0507 32.2958H64.2748C64.5467 34.9316 66.7429 36.3122 69.211 36.3122C71.1144 36.3122 72.6413 35.4964 73.6244 34.4295L75.9879 37.2536C73.9381 39.1991 71.7419 40.0149 69.0019 40.0149C63.4799 40.0149 59.8196 36.1867 59.8196 31.2499C59.8196 26.313 63.4172 22.4221 68.4162 22.4221C73.1851 22.443 76.3226 25.7691 76.3226 30.2248ZM64.2748 29.3881H72.1393V29.3462C71.972 27.2962 70.4033 26.0201 68.3953 26.0201C66.2827 26.041 64.5885 27.2962 64.2748 29.3881Z" fill="black"/>
<path d="M79.6689 16.251H83.9568V34.3249C83.9568 35.3709 84.145 36.2286 85.4419 36.2286C85.7347 36.2286 86.1321 36.1867 86.5713 36.0403V39.6593C86.0066 39.8894 85.3582 40.0149 84.5634 40.0149C81.8024 40.0149 79.6899 38.5924 79.6899 35.078V16.251H79.6689Z" fill="black"/>
<path d="M89.4785 16.251H93.7664V34.3249C93.7664 35.3709 93.9546 36.2286 95.2514 36.2286C95.5443 36.2286 95.9417 36.1867 96.3809 36.0403V39.6593C95.8162 39.8894 95.1677 40.0149 94.3729 40.0149C91.612 40.0149 89.4994 38.5924 89.4994 35.078V16.251H89.4785Z" fill="black"/>
<path d="M114.39 30.2248C114.39 30.957 114.264 31.7101 114.118 32.2958H102.342C102.614 34.9316 104.81 36.3122 107.278 36.3122C109.182 36.3122 110.708 35.4964 111.692 34.4295L114.055 37.2536C112.005 39.1991 109.809 40.0149 107.069 40.0149C101.547 40.0149 97.8867 36.1867 97.8867 31.2499C97.8867 26.313 101.484 22.4221 106.483 22.4221C111.273 22.443 114.39 25.7691 114.39 30.2248ZM102.342 29.3881H110.206V29.3462C110.039 27.2962 108.47 26.0201 106.462 26.0201C104.35 26.041 102.677 27.2962 102.342 29.3881Z" fill="black"/>
<path d="M134.428 31.2292C134.428 36.1661 130.684 40.0151 125.539 40.0151C120.414 40.0151 116.649 36.1661 116.649 31.2292C116.649 26.2923 120.393 22.4432 125.539 22.4432C130.684 22.4432 134.428 26.2923 134.428 31.2292ZM121 31.2292C121 34.0323 122.903 36.1242 125.539 36.1242C128.174 36.1242 130.078 34.0114 130.078 31.2292C130.078 28.447 128.174 26.3342 125.539 26.3342C122.924 26.3342 121 28.447 121 31.2292Z" fill="black"/>
<path d="M163.508 27.9126L170.723 16.1573H165.7L160.614 24.5631L155.527 16.1573H137.819V40.0092H142.225V30.4087H150.61V26.5472H142.225V20.0615H152.909L157.74 27.9126L150.227 40.0092H155.186L160.614 31.2408L166.041 40.0092H171L163.508 27.9126Z" fill="url(#paint0_linear_11_171)"/>
<path d="M0 0V56L13.5956 49.3269L27.1913 56V10.334L0 0ZM22.3387 18.325C22.3387 18.325 23.4472 25.4165 18.4064 28.8054C17.9044 27.9477 17.256 27.2365 16.5239 26.6507C17.4233 25.9604 20.7281 23.1573 22.3387 18.325ZM13.5956 47.1931L1.5269 53.3851V30.3952C2.04981 29.684 2.63546 28.9936 3.26295 28.2824L3.74403 27.6967C4.24602 28.5125 4.999 29.1401 5.66833 29.5585L6.88149 30.2069C6.88149 30.2069 0.857565 25.5629 5.14542 21.17C9.41235 16.7979 12.257 17.1535 14.9761 11.882C14.9761 11.882 15.0389 17.7602 10.3745 20.647C5.73108 23.5338 9.7261 27.6967 9.7261 27.6967C9.7261 27.6967 8.61753 26.1487 8.82669 24.5379C8.82669 24.5379 16.3566 25.0609 18.3855 30.4998L22.255 39.8924C22.255 39.8924 21.3138 42.6746 18.1136 43.8879C18.1136 43.8879 15.2899 41.4404 12.2988 40.2062L25.7062 53.4061L13.5956 47.1931Z" fill="url(#paint1_linear_11_171)"/>
<defs>
<linearGradient id="paint0_linear_11_171" x1="137.811" y1="28.0841" x2="171.002" y2="28.0841" gradientUnits="userSpaceOnUse">
<stop stop-color="#056ac8"/>
<stop offset="1" stop-color="#1b7dd9"/>
</linearGradient>
<linearGradient id="paint1_linear_11_171" x1="0" y1="27.9892" x2="27.1959" y2="27.9892" gradientUnits="userSpaceOnUse">
<stop stop-color="#056ac8"/>
<stop offset="1" stop-color="#1b7dd9"/>
</linearGradient>
</defs>
</svg>
